{"accessors":[{"bufferView":3,"componentType":5126,"count":2500,"max":[17.045303344726562,51.32350540161133,16.362199783325195],"min":[-17.045299530029297,-0.014675999991595745,-30.28580093383789],"type":"VEC3"},{"bufferView":3,"byteOffset":30000,"componentType":5126,"count":2500,"max":[0.9999999403953552,0.9999186396598816,0.9996623396873474],"min":[-0.9999999403953552,-1,-0.9998873472213745],"type":"VEC3"},{"bufferView":2,"componentType":5126,"count":2500,"max":[1,0.9944319725036621],"min":[0,0.004466999787837267],"type":"VEC2"},{"bufferView":1,"componentType":5125,"count":12582,"max":[2499],"min":[0],"type":"SCALAR"},{"bufferView":3,"byteOffset":60000,"componentType":5126,"count":88,"max":[10.081500053405762,36.518699645996094,12.14590072631836],"min":[-10.081500053405762,29.907699584960938,4.784550189971924],"type":"VEC3"},{"bufferView":3,"byteOffset":61056,"componentType":5126,"count":88,"max":[0.9954044222831726,0.6270318627357483,0.8358051776885986],"min":[-0.9954044222831726,-0.3644401729106903,0.032006241381168365],"type":"VEC3"},{"bufferView":2,"byteOffset":20000,"componentType":5126,"count":88,"max":[0.987559974193573,3.9727299213409424],"min":[0.012439999729394913,3.777240037918091],"type":"VEC2"},{"bufferView":1,"byteOffset":50328,"componentType":5125,"count":390,"max":[87],"min":[0],"type":"SCALAR"},{"bufferView":3,"byteOffset":62112,"componentType":5126,"count":72,"max":[5.833209991455078,37.851898193359375,14.441200256347656],"min":[-5.833209991455078,29.85219955444336,11.147899627685547],"type":"VEC3"},{"bufferView":3,"byteOffset":62976,"componentType":5126,"count":72,"max":[0.603399932384491,0.9787112474441528,0.9996980428695679],"min":[-0.6033998727798462,-0.41973677277565,0.20524226129055023],"type":"VEC3"},{"bufferView":2,"byteOffset":20704,"componentType":5126,"count":72,"max":[0.4257700443267822,2.994349956512451],"min":[0.07423299551010132,2.7560501098632812],"type":"VEC2"},{"bufferView":1,"byteOffset":51888,"componentType":5125,"count":336,"max":[71],"min":[0],"type":"SCALAR"},{"bufferView":3,"byteOffset":63840,"componentType":5126,"count":50,"max":[7.729869842529297,41.566497802734375,12.263999938964844],"min":[-7.729869842529297,36.14569854736328,6.803328990936279],"type":"VEC3"},{"bufferView":3,"byteOffset":64440,"componentType":5126,"count":50,"max":[0.7468209862709045,0.8694964051246643,0.7840315103530884],"min":[-0.7468209862709045,0.4204022288322449,0.3555682301521301],"type":"VEC3"},{"bufferView":2,"byteOffset":21280,"componentType":5126,"count":50,"max":[0.4938199520111084,1.985859990119934],"min":[0.006175994873046875,1.7662800550460815],"type":"VEC2"},{"bufferView":1,"byteOffset":53232,"componentType":5125,"count":192,"max":[49],"min":[0],"type":"SCALAR"},{"bufferView":5,"componentType":5126,"count":49,"max":[1,1,0.7198295593261719,0,0.9962784051895142,1,1.0000001192092896,0,0.9748339056968689,0.24530141055583954,1.000000238418579,0,14.285304069519043,25.4312686920166,15.644786834716797,1],"min":[-0.6583194732666016,-1,-0.7198282480239868,0,-1.000000238418579,-0.9754687547683716,-0.6957159638404846,0,-0.9381042718887329,-0.24530136585235596,-9.920242973748827e-7,0,-41.318660736083984,-25.431175231933594,-9.506424903869629,1],"type":"MAT4"},{"bufferView":0,"componentType":5123,"count":2500,"max":[44,44,44,42],"min":[4,4,4,4],"type":"VEC4"},{"bufferView":4,"componentType":5126,"count":2500,"max":[1,0.5,0.30000001192092896,0.23000000417232513],"min":[0.25999999046325684,0,0,0],"type":"VEC4"},{"bufferView":0,"byteOffset":20000,"componentType":5123,"count":88,"max":[26,26,26,26],"min":[26,25,26,26],"type":"VEC4"},{"bufferView":4,"byteOffset":40000,"componentType":5126,"count":88,"max":[1,0.09000000357627869,0,0],"min":[0.9100000262260437,0,0,0],"type":"VEC4"},{"bufferView":0,"byteOffset":20704,"componentType":5123,"count":72,"max":[26,26,26,26],"min":[26,25,26,26],"type":"VEC4"},{"bufferView":4,"byteOffset":41408,"componentType":5126,"count":72,"max":[1,0.029999999329447746,0,0],"min":[0.9700000286102295,0,0,0],"type":"VEC4"},{"bufferView":0,"byteOffset":21280,"componentType":5123,"count":50,"max":[26,26,26,26],"min":[26,26,26,26],"type":"VEC4"},{"bufferView":4,"byteOffset":42560,"componentType":5126,"count":50,"max":[1,0,0,0],"min":[1,0,0,0],"type":"VEC4"}],"asset":{"extras":{"author":"jacobjksn42 (https://sketchfab.com/jacobjksn42)","license":"CC-BY-4.0 (http://creativecommons.org/licenses/by/4.0/)","source":"https://sketchfab.com/3d-models/pikachu-c22dab8fc3064c76a0c502d64555a74f","title":"Pikachu"},"generator":"Sketchfab-7.58.0","version":"2.0"},"bufferViews":[{"buffer":0,"byteLength":21680,"byteOffset":0,"byteStride":8,"name":"shortBufferViews","target":34962},{"buffer":0,"byteLength":54000,"byteOffset":21680,"name":"floatBufferViews","target":34963},{"buffer":0,"byteLength":21680,"byteOffset":75680,"byteStride":8,"name":"floatBufferViews","target":34962},{"buffer":0,"byteLength":65040,"byteOffset":97360,"byteStride":12,"name":"floatBufferViews","target":34962},{"buffer":0,"byteLength":43360,"byteOffset":162400,"byteStride":16,"name":"floatBufferViews","target":34962},{"buffer":0,"byteLength":3136,"byteOffset":205760,"byteStride":64,"name":"floatBufferViews"}],"buffers":[{"byteLength":208896,"uri":"data:application/octet-stream;base64,"}],"images":[{"uri":"data:application/octet-stream;base64,"},{"uri":"data:application/octet-stream;base64,"},{"uri":"data:application/octet-stream;base64,"},{"uri":"data:application/octet-stream;base64,"}],"materials":[{"doubleSided":true,"emissiveFactor":[0,0,0],"name":"Material_160","pbrMetallicRoughness":{"baseColorFactor":[1,1,1,1],"baseColorTexture":{"index":0,"texCoord":0},"metallicFactor":0,"roughnessFactor":0.8929713596497552}},{"doubleSided":true,"emissiveFactor":[0,0,0],"name":"Material_161","pbrMetallicRoughness":{"baseColorFactor":[1,1,1,1],"baseColorTexture":{"index":1,"texCoord":0},"metallicFactor":0,"roughnessFactor":0.8929713596497552}},{"doubleSided":true,"emissiveFactor":[0,0,0],"name":"Material_162","pbrMetallicRoughness":{"baseColorFactor":[1,1,1,1],"baseColorTexture":{"index":2,"texCoord":0},"metallicFactor":0,"roughnessFactor":0.8929713596497552}},{"doubleSided":true,"emissiveFactor":[0,0,0],"name":"Material_163","pbrMetallicRoughness":{"baseColorFactor":[1,1,1,1],"baseColorTexture":{"index":3,"texCoord":0},"metallicFactor":0,"roughnessFactor":0.8929713596497552}}],"meshes":[{"name":"PikachuM_Material #160_0","primitives":[{"attributes":{"JOINTS_0":17,"NORMAL":1,"POSITION":0,"TEXCOORD_0":2,"WEIGHTS_0":18},"indices":3,"material":0,"mode":4}]},{"name":"PikachuM_Material #161_0","primitives":[{"attributes":{"JOINTS_0":19,"NORMAL":5,"POSITION":4,"TEXCOORD_0":6,"WEIGHTS_0":20},"indices":7,"material":1,"mode":4}]},{"name":"PikachuM_Material #162_0","primitives":[{"attributes":{"JOINTS_0":21,"NORMAL":9,"POSITION":8,"TEXCOORD_0":10,"WEIGHTS_0":22},"indices":11,"material":2,"mode":4}]},{"name":"PikachuM_Material #163_0","primitives":[{"attributes":{"JOINTS_0":23,"NORMAL":13,"POSITION":12,"TEXCOORD_0":14,"WEIGHTS_0":24},"indices":15,"material":3,"mode":4}]}],"nodes":[{"children":[1],"name":"RootNode (gltf orientation matrix)","rotation":[-0.7071067811865475,0,0,0.7071067811865476]},{"children":[2],"name":"RootNode (model correction matrix)"},{"children":[3],"matrix":[1,0,0,0,0,0,1,0,0,-1,0,0,0,0,0,1],"name":"PikachuM.FBX"},{"children":[4],"name":"RootNode"},{"children":[5,7,8,9,10,6],"name":""},{"children":[11],"name":"_rootJoint"},{"matrix":[1,0,-2.117582368135751e-22,0,-2.1175823681357506e-22,6.123233995736765e-17,-0.9999999999999999,0,1.2966452345341595e-38,0.9999999999999999,6.123233995736765e-17,0,2.371692252312041e-20,0,-1.7763568394002505e-15,1],"name":""},{"mesh":0,"name":"","skin":0},{"mesh":1,"name":"","skin":0},{"mesh":2,"name":"","skin":0},{"mesh":3,"name":"","skin":0},{"children":[12,56,58],"name":"pm0025_00_pikachu_00","rotation":[-1.5695823663008923e-7,0,0,1]},{"children":[13],"name":"Origin_02"},{"children":[14,34],"name":"Waist_03","rotation":[0.030503390356898308,-0.030503276735544205,0.7064498662948608,0.7064472436904907],"translation":[0,14.285300254821777,0.262721985578537]},{"children":[15,16,18,24,30],"name":"Hips_04","rotation":[0.043140608817338943,5.468464792102168e-8,0.9990690350532532,-0.0000012664108908211347],"scale":[0.9999997615814209,1,0.9999997615814209]},{"name":"EndHips_01","rotation":[1.7099169302703388e-14,-4.76837158203125e-7,7.397731480828882e-21,1],"translation":[13.276803970336914,7.275957614183426e-12,-0.00001800060272216797]},{"children":[17],"name":"Feeler_05","rotation":[1.7099169302703388e-14,-4.76837158203125e-7,7.397731480828882e-21,1],"translation":[4.056127548217773,1.4551915228366852e-11,-0.028654977679252625]},{"name":"EndFeeler_06","rotation":[1.3072876114961218e-14,-2.9724278908727725e-27,-2.2737367544323206e-13,1],"translation":[7.687202453613281,-1.3552527156068805e-20,2.7755575615628914e-17]},{"children":[19],"name":"LThigh_07","rotation":[-0.10155921429395676,-0.4219525456428528,0.04763314127922058,0.8996515274047852],"scale":[0.9999999403953552,0.9999999403953552,1],"translation":[3.200380325317383,6.393030166625977,-1.9786300659179688]},{"children":[20],"name":"LLeg_08","rotation":[2.198857629309714e-8,0.683159589767456,3.1052415749854845e-8,0.730269193649292],"scale":[1.0000001192092896,1.0000001192092896,1],"translation":[6.265951156616211,0,-0.000003814697265625]},{"children":[21,22],"name":"LFoot_09","rotation":[-1.7032519394888368e-7,0.8907169699668884,0.000001026672862280975,-0.4545583128929138],"scale":[1,1.0000001192092896,1.0000001192092896],"translation":[6.611589431762695,0,0.0000017285346984863281]},{"name":"EndLFoot_010","rotation":[-1.3945875619683485e-22,1.7053021592484258e-13,2.8877171921043443e-12,1],"scale":[1.000000238418579,1.000000238418579,1],"translation":[8.173453330993652,9.5367431640625e-7,2.384185791015625e-7]},{"children":[23],"name":"LToe_011","rotation":[-1.3945875619683485e-22,1.7053021592484258e-13,2.8877171921043443e-12,1],"scale":[1.000000238418579,1.000000238418579,1],"translation":[4.976099967956543,1.7763568394002505e-15,-1.0643999576568604]},{"name":"EndLToe_012","rotation":[-1.7205359265457872e-22,-4.968399065305694e-34,2.887704398518709e-12,1],"scale":[0.9999998807907104,0.9999998807907104,1],"translation":[3.2724180221557617,-0.000001430511474609375,-1.1920928955078125e-7]},{"children":[25],"name":"RThigh_013","rotation":[0.10155933350324631,-0.4219525456428528,-0.04763298109173775,0.8996515274047852],"scale":[0.9999999403953552,0.9999999403953552,1.0000001192092896],"translation":[3.2003707885742188,-6.393030166625977,-1.978639841079712]},{"children":[26],"name":"RLeg_014","rotation":[-1.1617783002293436e-7,0.6831592917442322,3.990400188058629e-8,0.7302694320678711],"scale":[1.000000238418579,1,1],"translation":[6.265972137451172,-0.000001430511474609375,-0.0000057220458984375]},{"children":[27,28],"name":"RFoot_015","rotation":[-6.230753228919639e-7,0.8907169699668884,7.787529625602474e-7,-0.45455828309059143],"scale":[1.0000003576278687,1.000000238418579,1.0000001192092896],"translation":[6.611591815948486,-0.000004291534423828125,-0.000003874301910400391]},{"name":"EndRFoot_016","rotation":[-3.9658356956521613e-23,2.842170943040401e-14,-1.6295159666057657e-12,1],"translation":[8.173453330993652,0.000006198883056640625,0.0000050067901611328125]},{"children":[29],"name":"RToe_017","rotation":[-3.9658356956521613e-23,2.842170943040401e-14,-1.6295159666057657e-12,1],"translation":[4.97599983215332,0.00000858306884765625,-1.0644001960754395]},{"name":"EndRToe_018","rotation":[7.2796523571547e-22,2.842170943040401e-14,-1.6295437221813813e-12,1],"translation":[3.2724194526672363,-0.000010013580322265625,0.0000010132789611816406]},{"children":[31],"name":"Tail1_019","rotation":[-0.5716824531555176,7.246595146170876e-7,0.8204749822616577,0.0000010400266319265938],"translation":[3.9167394638061523,0,-9.021114349365234]},{"children":[32],"name":"Tail2_020","rotation":[2.7589098294811265e-7,-0.38789212703704834,-2.4555686195526505e-7,0.9217047691345215],"translation":[5.5047407150268555,-7.275957614183426e-12,4.76837158203125e-7]},{"children":[33],"name":"Tail3_021","rotation":[8.662544965197527e-14,-0.12157497555017471,2.396830834933833e-13,0.9925822615623474],"scale":[0.9999999403953552,1,0.9999999403953552],"translation":[12.843997955322266,-9.999930625781417e-7,4.76837158203125e-7]},{"name":"EndTail3_022","rotation":[-1.3234889800848443e-23,-3.009265896837463e-36,2.2737370254828637e-13,1],"scale":[0.9999998807907104,1,0.9999998807907104],"translation":[16.865402221679688,-0.0000010000003385357559,-0.0000019073486328125]},{"children":[35],"name":"Spine1_023","rotation":[9.062737001766588e-24,6.938895558268453e-18,8.064981311221984e-23,1],"scale":[0.9999997615814209,1,0.9999997615814209]},{"children":[36,46,51],"name":"Spine2_024","rotation":[2.3835491415820763e-24,-0.07636663317680359,-4.0800618080950776e-22,0.9970799088478088],"translation":[5.5513811111450195,-3.637978807091713e-12,2.220446049250313e-16]},{"children":[37,38,42],"name":"Head_025","rotation":[6.082764500425775e-14,0.23737476766109467,-2.489273706867551e-13,0.9714181423187256],"scale":[1.000000238418579,1,1.000000238418579],"translation":[8.832683563232422,-1.4551915228366852e-11,-8.881784197001252e-16]},{"name":"EndHead_026","rotation":[2.842170943040401e-14,-1.3877787807814457e-17,1.7265378327481984e-22,1],"translation":[15.410905838012695,1.0913936421275139e-11,9.5367431640625e-7]},{"children":[39],"name":"LEar1_027","rotation":[0.19823476672172546,0.014902696944773197,-0.36462774872779846,0.9096853733062744],"scale":[1,0.9999999403953552,0.9999998211860657],"translation":[11.94660758972168,-6.241559982299805,0.5475654602050781]},{"children":[40],"name":"LEar2_028","rotation":[2.7755575615628914e-17,-3.7252894102834944e-9,-1.1102227599273605e-16,1],"scale":[1.000000238418579,1,1.000000238418579],"translation":[5.333003997802734,0.0000019073486328125,4.76837158203125e-7]},{"children":[41],"name":"LEar3_029","rotation":[2.2351738238057806e-8,1.4901161193847656e-8,1.4901161193847656e-8,1],"scale":[1,1.0000001192092896,1.000000238418579],"translation":[5.102001190185547,-0.00000762939453125,4.76837158203125e-7]},{"name":"EndLEar3_030","rotation":[3.725290298461914e-9,-7.450580596923828e-9,7.979727989493313e-17,1],"translation":[5.55999755859375,-0.0000019073486328125,4.76837158203125e-7]},{"children":[43],"name":"REar1_031","rotation":[-0.19823481142520905,0.014902654103934765,0.36462777853012085,0.9096853733062744],"scale":[1.000000238418579,1.0000001192092896,1.0000001192092896],"translation":[11.946599960327148,6.241560935974121,0.5475606918334961]},{"children":[44],"name":"REar2_032","rotation":[-5.412337245047638e-16,1.1175870895385742e-8,4.470348358154297e-8,1],"translation":[5.3329925537109375,0.0000152587890625,-0.000004291534423828125]},{"children":[45],"name":"REar3_033","rotation":[7.4505797087454084e-9,2.2351741790771484e-8,2.9802322387695312e-8,1],"translation":[5.102027893066406,-0.000049591064453125,0.000002384185791015625]},{"name":"EndREar3_034","rotation":[6.245006101703282e-16,-1.1175872671742582e-8,5.960465188081798e-8,1],"scale":[0.9999998807907104,0.9999999403953552,1.000000238418579],"translation":[5.5599822998046875,0.000057220458984375,-0.00000762939453125]},{"children":[47],"name":"LShoulder_035","rotation":[-0.31814777851104736,-0.22739340364933014,-0.5373179912567139,0.7472373247146606],"scale":[0.9999999403953552,1.0000001192092896,1],"translation":[3.223440170288086,-3.536051034927368,1.3460009098052979]},{"children":[48],"name":"LArm_036","rotation":[0.19335705041885376,-0.031331852078437805,0.09129253029823303,0.976369321346283],"scale":[1,1.0000001192092896,0.9999998807907104],"translation":[5.118751525878906,-0.000003814697265625,-0.0000019073486328125]},{"children":[49],"name":"LForeArm_037","rotation":[1.4901161193847656e-8,-7.450580596923828e-9,-7.450580596923828e-9,1],"translation":[5.422382354736328,0,9.5367431640625e-7]},{"children":[50],"name":"LHand_038","rotation":[0.11479144543409348,5.69080338408412e-9,-1.5657921181855272e-8,0.9933896064758301],"scale":[1,1.0000001192092896,0.9999999403953552],"translation":[4.472320556640625,9.5367431640625e-7,-0.0000019073486328125]},{"name":"EndLHand_039","rotation":[-2.9802322387695312e-8,2.2351741790771484e-8,-7.450580152834618e-9,1],"scale":[1,1,0.9999999403953552],"translation":[3.3940505981445312,-1.7763568394002505e-15,-1.7763568394002505e-15]},{"children":[52],"name":"RShoulder_040","rotation":[0.31814780831336975,-0.22739341855049133,0.5373179912567139,0.7472372651100159],"scale":[0.9999999403953552,1,1.0000001192092896],"translation":[3.223470687866211,3.5360500812530518,1.3460006713867188]},{"children":[53],"name":"RArm_041","rotation":[-0.19335691630840302,-0.031331826001405716,-0.09129247814416885,0.976369321346283],"scale":[0.9999998807907104,0.9999998807907104,0.9999997615814209],"translation":[5.1187424659729,0.0000762939453125,0.00001239776611328125]},{"children":[54],"name":"RForeArm_042","rotation":[-4.0245595230573765e-16,2.980232594040899e-8,1.4901162970204496e-8,1],"scale":[0.9999998807907104,0.9999998807907104,0.9999997615814209],"translation":[5.422357559204102,-0.00004291534423828125,-0.0000705718994140625]},{"children":[55],"name":"RHand_043","rotation":[-0.11479143053293228,-2.9605317308778467e-8,-3.421051442131784e-9,0.9933896064758301],"scale":[1,0.9999999403953552,0.9999999403953552],"translation":[4.472404479980469,0.0000171661376953125,0.0000667572021484375]},{"name":"EndRHand_044","rotation":[-2.9802320611338473e-8,-4.470347647611561e-8,-2.9802320611338473e-8,1],"scale":[1.0000001192092896,1.0000001192092896,1.0000001192092896],"translation":[3.394010543823242,-0.0000705718994140625,-0.0000152587890625]},{"children":[57],"name":"VriVis00_045"},{"name":"pm0025_00_SippoSkin_046"},{"name":"pm0025_00_BodySkin_047"}],"samplers":[{"magFilter":9729,"minFilter":9987,"wrapS":10497,"wrapT":10497}],"scene":0,"scenes":[{"name":"OSG_Scene","nodes":[0]}],"skins":[{"inverseBindMatrices":16,"joints":[5,11,12,13,14,15,16,17,18,19,20,21,22,23,24,25,26,27,28,29,30,31,32,33,34,35,36,37,38,39,40,41,42,43,44,45,46,47,48,49,50,51,52,53,54,55,56,57,58],"skeleton":5}],"textures":[{"sampler":0,"source":0},{"sampler":0,"source":1},{"sampler":0,"source":2},{"sampler":0,"source":3}]}